<svg xmlns="http://www.w3.org/2000/svg" viewBox="0 0 48 48" width="48" height="48"><title>privacy</title><g class="nc-icon-wrapper" fill="#4c4c4c"><path d="M42.217,6.023l-18-4a1.024,1.024,0,0,0-.434,0l-18,4A1,1,0,0,0,5,7V27a19,19,0,0,0,38,0V7A1,1,0,0,0,42.217,6.023ZM33,33a1,1,0,0,1-1,1H16a1,1,0,0,1-1-1V23a1,1,0,0,1,1-1h3V17a5,5,0,0,1,10,0v5h3a1,1,0,0,1,1,1Z" fill="#4c4c4c"/><path d="M24,14a3,3,0,0,0-3,3v5h6V17A3,3,0,0,0,24,14Z" fill="#4c4c4c"/><circle cx="24" cy="28" r="2" fill="#4c4c4c"/></g></svg>