<svg xmlns="http://www.w3.org/2000/svg" width="22" height="12" viewBox="0 0 22 12">
  <path fill="#9EA3A8" d="M653.395498,913 L647.850263,918.545235 C645.509443,917.853071 642.997362,918.83732 641.749792,920.935439 C640.502223,923.033557 640.83719,925.7107 642.563245,927.436755 C644.2893,929.16281 646.966443,929.497777 649.064561,928.250208 C651.16268,927.002638 652.146929,924.490557 651.454765,922.149737 L653.005354,920.599149 L653.005354,918.326195 L655.278308,918.326195 L657,916.604502 L657,913 L653.395498,913 Z M646.34761,925.649713 C645.244519,925.649713 644.350287,924.755481 644.350287,923.65239 C644.350287,922.549299 645.244519,921.655067 646.34761,921.655067 C647.450701,921.655067 648.344933,922.549299 648.344933,923.65239 C648.344933,924.755481 647.450701,925.649713 646.34761,925.649713 Z" transform="rotate(45 1434.003 -307.841)"/>
</svg>
